<svg xmlns="http://www.w3.org/2000/svg" xmlns:xlink="http://www.w3.org/1999/xlink" width="492" zoomAndPan="magnify" viewBox="0 0 369 368.999991" height="492" preserveAspectRatio="xMidYMid meet" version="1.0"><defs><clipPath id="e3ef666579"><path d="M 0 0 L 368.726562 0 L 368.726562 368.726562 L 0 368.726562 Z M 0 0 " clip-rule="nonzero"/></clipPath><clipPath id="c441b31d05"><path d="M 48.75 0 L 319.976562 0 C 332.90625 0 345.304688 5.136719 354.445312 14.277344 C 363.589844 23.421875 368.726562 35.820312 368.726562 48.75 L 368.726562 319.976562 C 368.726562 332.90625 363.589844 345.304688 354.445312 354.445312 C 345.304688 363.589844 332.90625 368.726562 319.976562 368.726562 L 48.75 368.726562 C 35.820312 368.726562 23.421875 363.589844 14.277344 354.445312 C 5.136719 345.304688 0 332.90625 0 319.976562 L 0 48.75 C 0 35.820312 5.136719 23.421875 14.277344 14.277344 C 23.421875 5.136719 35.820312 0 48.75 0 Z M 48.75 0 " clip-rule="nonzero"/></clipPath><clipPath id="9335426e68"><path d="M 0 0 L 368.726562 0 L 368.726562 368.726562 L 0 368.726562 Z M 0 0 " clip-rule="nonzero"/></clipPath><clipPath id="5b68ee367d"><path d="M 48.75 0 L 319.976562 0 C 332.90625 0 345.304688 5.136719 354.445312 14.277344 C 363.589844 23.421875 368.726562 35.820312 368.726562 48.75 L 368.726562 319.976562 C 368.726562 332.90625 363.589844 345.304688 354.445312 354.445312 C 345.304688 363.589844 332.90625 368.726562 319.976562 368.726562 L 48.75 368.726562 C 35.820312 368.726562 23.421875 363.589844 14.277344 354.445312 C 5.136719 345.304688 0 332.90625 0 319.976562 L 0 48.75 C 0 35.820312 5.136719 23.421875 14.277344 14.277344 C 23.421875 5.136719 35.820312 0 48.75 0 Z M 48.75 0 " clip-rule="nonzero"/></clipPath><clipPath id="a4a21bbe3b"><rect x="0" width="369" y="0" height="369"/></clipPath></defs><g clip-path="url(#e3ef666579)"><g clip-path="url(#c441b31d05)"><g transform="matrix(1, 0, 0, 1, 0, 0)"><g clip-path="url(#a4a21bbe3b)"><g clip-path="url(#9335426e68)"><g clip-path="url(#5b68ee367d)"><path fill="#00bc7d" d="M 0 0 L 368.726562 0 L 368.726562 368.726562 L 0 368.726562 Z M 0 0 " fill-opacity="1" fill-rule="nonzero"/></g></g></g></g></g></g><path stroke-linecap="round" transform="matrix(10.968749, 0, 0, 10.968749, 52.828734, 52.828729)" fill="none" stroke-linejoin="round" d="M 2.99211 16.341826 C 3.065472 16.527368 3.110344 16.719675 3.126369 16.918393 C 3.142395 17.117467 3.128862 17.314049 3.086127 17.508849 L 2.020956 20.799092 C 2.012409 20.840402 2.006711 20.882425 2.003506 20.924804 C 2.000301 20.967183 1.999589 21.009206 2.001725 21.051584 C 2.003862 21.093963 2.008848 21.135986 2.016326 21.178009 C 2.023805 21.219676 2.034133 21.26063 2.046953 21.301228 C 2.059418 21.341471 2.074731 21.381 2.092537 21.419462 C 2.110343 21.457924 2.130643 21.495317 2.153079 21.531285 C 2.175514 21.567254 2.200087 21.601442 2.227153 21.634206 C 2.253862 21.667325 2.282708 21.698308 2.313691 21.727154 C 2.344318 21.756357 2.377081 21.783422 2.411269 21.808351 C 2.445457 21.83328 2.481426 21.856072 2.518463 21.876727 C 2.5555 21.897026 2.593962 21.915189 2.633492 21.930502 C 2.672665 21.946171 2.713264 21.959348 2.754218 21.969676 C 2.795173 21.980003 2.836839 21.987838 2.878862 21.99318 C 2.921241 21.998166 2.963264 22.000659 3.005643 22.000302 C 3.048022 22.000302 3.090401 21.997453 3.132423 21.991755 C 3.174446 21.986057 3.216113 21.977867 3.257067 21.966827 L 6.670173 20.968963 C 6.853934 20.932639 7.039119 20.921955 7.226085 20.937624 C 7.412694 20.953294 7.593606 20.994604 7.769176 21.060844 C 7.945102 21.143109 8.123521 21.220388 8.304432 21.292325 C 8.484988 21.363906 8.66768 21.430502 8.852153 21.491755 C 9.036626 21.553009 9.22288 21.608921 9.410558 21.659134 C 9.598592 21.709704 9.787694 21.75422 9.977865 21.79375 C 10.168392 21.832924 10.359988 21.866755 10.552296 21.894889 C 10.744603 21.923023 10.937623 21.945459 11.131355 21.962553 C 11.325088 21.979291 11.519176 21.990687 11.71362 21.996029 C 11.908065 22.001727 12.102153 22.001727 12.296598 21.996029 C 12.491042 21.990331 12.685131 21.978579 12.878863 21.961841 C 13.072239 21.944747 13.265259 21.921955 13.457923 21.893465 C 13.65023 21.865331 13.84147 21.831143 14.031997 21.791613 C 14.222168 21.752439 14.41127 21.707211 14.599304 21.656641 C 14.786983 21.606072 14.97288 21.55016 15.157709 21.488906 C 15.342182 21.427297 15.524518 21.360701 15.705074 21.288764 C 15.885985 21.216471 16.064048 21.139547 16.24033 21.056926 C 16.416256 20.974661 16.590045 20.887055 16.760985 20.794462 C 16.931926 20.701869 17.100017 20.604291 17.265259 20.502083 C 17.430857 20.399519 17.592894 20.292681 17.752082 20.180858 C 17.910914 20.069035 18.066541 19.952582 18.218963 19.831499 C 18.371384 19.710772 18.519889 19.585416 18.664832 19.455787 C 18.809775 19.326157 18.9508 19.19261 19.087909 19.054789 C 19.225017 18.916969 19.358208 18.775231 19.487125 18.629576 C 19.616043 18.48392 19.740687 18.334704 19.860701 18.181926 C 19.981071 18.029148 20.096456 17.872809 20.207567 17.713265 C 20.318678 17.553721 20.42516 17.390972 20.526655 17.225373 C 20.628151 17.059419 20.725017 16.890972 20.816897 16.719319 C 20.908422 16.548023 20.995316 16.374234 21.076869 16.197596 C 21.158422 16.020957 21.234989 15.842539 21.305858 15.661271 C 21.377083 15.480359 21.442966 15.297667 21.503507 15.112838 C 21.564048 14.928009 21.619248 14.741755 21.668749 14.553721 C 21.718607 14.365687 21.762766 14.176228 21.801228 13.985701 C 21.83969 13.795174 21.872809 13.603578 21.900231 13.411271 C 21.927652 13.218607 21.949376 13.025587 21.965758 12.831855 C 21.981784 12.638122 21.992467 12.444034 21.997097 12.24959 C 22.002083 12.055145 22.00137 11.860701 21.994604 11.666612 C 21.988194 11.472168 21.976086 11.27808 21.958279 11.084703 C 21.940473 10.890971 21.916969 10.697951 21.888123 10.505644 C 21.85892 10.313336 21.824376 10.122097 21.784134 9.931926 C 21.743892 9.741755 21.698308 9.552652 21.647026 9.36533 C 21.595744 9.177652 21.53912 8.991755 21.476798 8.807638 C 21.414832 8.623165 21.347524 8.440829 21.274875 8.260629 C 21.201869 8.080074 21.124234 7.902011 21.0409 7.726441 C 20.957923 7.550515 20.869604 7.377438 20.776655 7.206854 C 20.68335 7.035914 20.58506 6.868179 20.48214 6.703293 C 20.379219 6.538407 20.271669 6.376726 20.159134 6.217894 C 20.046598 6.059418 19.929789 5.904148 19.80835 5.752438 C 19.686555 5.600373 19.560843 5.452224 19.430857 5.307994 C 19.300516 5.163407 19.166256 5.022737 19.02808 4.886341 C 18.889903 4.749589 18.747453 4.61711 18.601441 4.488549 C 18.45543 4.360344 18.305857 4.236412 18.152367 4.116754 C 17.999233 3.997096 17.842538 3.882068 17.682638 3.771669 C 17.522382 3.660914 17.359276 3.555501 17.193322 3.454361 C 17.027011 3.353221 16.858208 3.257424 16.686199 3.166256 C 16.514547 3.075088 16.340401 2.988905 16.163407 2.908065 C 15.986769 2.827224 15.807638 2.75137 15.62637 2.680857 C 15.445102 2.610344 15.262054 2.545173 15.077225 2.485344 C 14.892039 2.425515 14.70543 2.371384 14.517396 2.322239 C 14.329005 2.273449 14.139547 2.230002 13.949019 2.191897 C 13.758136 2.154147 13.566541 2.12174 13.373877 2.095031 C 13.181569 2.068321 12.988193 2.04731 12.794461 2.031996 C 12.600373 2.016327 12.406284 2.006711 12.212196 2.002438 C 12.017752 1.998521 11.823307 1.999945 11.628863 2.007068 C 11.434774 2.014546 11.240686 2.027367 11.04731 2.045885 C 10.853578 2.064404 10.660914 2.08862 10.468606 2.118179 C 10.276298 2.148093 10.085415 2.18335 9.895244 2.224304 C 9.705073 2.265258 9.516327 2.311911 9.329005 2.363549 C 9.141683 2.415543 8.956142 2.47288 8.772025 2.535914 C 8.587908 2.598592 8.405928 2.666612 8.225729 2.739974 C 8.045885 2.813335 7.867823 2.892039 7.692609 2.975729 C 7.517039 3.059418 7.343962 3.148449 7.173734 3.24211 C 7.003506 3.336127 6.836127 3.434774 6.671597 3.538407 C 6.507067 3.642039 6.345743 3.750301 6.187267 3.863193 C 6.029147 3.976441 5.874589 4.093962 5.723235 4.216113 C 5.571882 4.337908 5.42409 4.464333 5.279859 4.595031 C 5.135985 4.725729 4.996027 4.860344 4.859988 4.999233 C 4.723592 5.138122 4.591825 5.280928 4.463976 5.427296 C 4.336127 5.574019 4.212552 5.723948 4.093606 5.877794 C 3.97466 6.03164 3.859987 6.188692 3.750301 6.348948 C 3.640258 6.509561 3.535201 6.673022 3.434774 6.839333 C 3.334703 7.006 3.239261 7.175515 3.148805 7.347524 C 3.058349 7.519532 2.972879 7.69439 2.892395 7.871384 C 2.812267 8.048378 2.737124 8.227866 2.667324 8.409133 C 2.597523 8.590757 2.533064 8.774162 2.473948 8.959347 C 2.414831 9.144532 2.361056 9.331142 2.312979 9.519532 C 2.264546 9.707923 2.221811 9.897738 2.184774 10.088621 C 2.147737 10.279504 2.116042 10.471099 2.090044 10.663763 C 2.064047 10.856427 2.043748 11.049803 2.029147 11.243535 C 2.01419 11.437624 2.005287 11.631712 2.001725 11.826157 C 1.99852 12.020601 2.000657 12.215045 2.008848 12.409134 C 2.016683 12.603578 2.030215 12.79731 2.049446 12.990687 C 2.068677 13.184419 2.093606 13.377083 2.124232 13.569034 C 2.154503 13.760986 2.190828 13.952225 2.232495 14.14204 C 2.274161 14.331855 2.32117 14.520601 2.373876 14.707567 C 2.426583 14.894889 2.484631 15.08043 2.548022 15.264191 C 2.611412 15.447952 2.680144 15.629932 2.754218 15.809419 C 2.828292 15.989262 2.907708 16.166969 2.99211 16.341826 " stroke="#000000" stroke-width="2" stroke-opacity="1" stroke-miterlimit="4"/></svg>